<svg width="20" height="20" viewBox="0 0 20 20" fill="none" xmlns="http://www.w3.org/2000/svg">
<path d="M9.48 1.49921C9.52229 1.39605 9.59432 1.30779 9.68692 1.24567C9.77951 1.18356 9.8885 1.15039 10 1.15039C10.1115 1.15039 10.2205 1.18356 10.3131 1.24567C10.4057 1.30779 10.4777 1.39605 10.52 1.49921L12.645 6.61021C12.6848 6.70585 12.7502 6.78866 12.834 6.84953C12.9178 6.9104 13.0167 6.94697 13.12 6.95521L18.638 7.39721C19.137 7.43721 19.339 8.06021 18.959 8.38521L14.755 11.9872C14.6765 12.0544 14.6179 12.1419 14.5858 12.2402C14.5537 12.3384 14.5493 12.4436 14.573 12.5442L15.858 17.9292C15.8838 18.0373 15.8771 18.1505 15.8385 18.2547C15.8 18.3589 15.7315 18.4494 15.6416 18.5146C15.5517 18.5799 15.4445 18.6171 15.3335 18.6214C15.2225 18.6258 15.1127 18.5972 15.018 18.5392L10.293 15.6542C10.2047 15.6004 10.1034 15.572 10 15.572C9.89663 15.572 9.79526 15.6004 9.707 15.6542L4.982 18.5402C4.88726 18.5982 4.77745 18.6268 4.66646 18.6224C4.55546 18.6181 4.44825 18.5809 4.35837 18.5156C4.26848 18.4504 4.19996 18.3599 4.16145 18.2557C4.12294 18.1515 4.11617 18.0383 4.142 17.9302L5.427 12.5442C5.45083 12.4436 5.44645 12.3384 5.41434 12.2401C5.38223 12.1418 5.32363 12.0543 5.245 11.9872L1.041 8.38521C0.956812 8.31283 0.895908 8.21716 0.865948 8.11025C0.835987 8.00334 0.838306 7.88996 0.872614 7.78436C0.906922 7.67876 0.971687 7.58567 1.05876 7.51678C1.14584 7.4479 1.25134 7.4063 1.362 7.39721L6.88 6.95521C6.98325 6.94697 7.08222 6.9104 7.16602 6.84953C7.24983 6.78866 7.31522 6.70585 7.355 6.61021L9.48 1.49921Z" fill="#FFF4A8" stroke="#FFF4A8" stroke-width="1.5" stroke-linecap="round" stroke-linejoin="round"/>
</svg>
