<svg width="38" height="38" viewBox="0 0 38 38" fill="none" xmlns="http://www.w3.org/2000/svg">
<path d="M17.5 17.5L17.582 17.46C17.8385 17.3319 18.1263 17.2799 18.4113 17.3103C18.6964 17.3407 18.9668 17.4521 19.1905 17.6314C19.4142 17.8107 19.5818 18.0504 19.6735 18.322C19.7653 18.5936 19.7772 18.8858 19.708 19.164L18.292 24.836C18.2223 25.1143 18.2339 25.4068 18.3254 25.6788C18.4169 25.9507 18.5845 26.1907 18.8083 26.3703C19.0321 26.5499 19.3027 26.6615 19.588 26.692C19.8733 26.7224 20.1614 26.6703 20.418 26.542L20.5 26.5M37 19C37 21.3638 36.5344 23.7044 35.6298 25.8883C34.7252 28.0722 33.3994 30.0565 31.7279 31.7279C30.0565 33.3994 28.0722 34.7252 25.8883 35.6298C23.7044 36.5344 21.3638 37 19 37C16.6362 37 14.2956 36.5344 12.1117 35.6298C9.92784 34.7252 7.94353 33.3994 6.27208 31.7279C4.60062 30.0565 3.27475 28.0722 2.37017 25.8883C1.46558 23.7044 1 21.3638 1 19C1 14.2261 2.89642 9.64773 6.27208 6.27208C9.64773 2.89642 14.2261 1 19 1C23.7739 1 28.3523 2.89642 31.7279 6.27208C35.1036 9.64773 37 14.2261 37 19ZM19 11.5H19.016V11.516H19V11.5Z" stroke="#2C2929" stroke-width="2" stroke-linecap="round" stroke-linejoin="round"/>
</svg>
