<svg width="14" height="12" viewBox="0 0 14 12" fill="none" xmlns="http://www.w3.org/2000/svg">
<path fill-rule="evenodd" clip-rule="evenodd" d="M0.46875 5.99999C0.46875 5.84252 0.531306 5.6915 0.642655 5.58015C0.754005 5.4688 0.905028 5.40624 1.0625 5.40624H11.5046L7.17417 1.07582C7.06929 0.963269 7.01219 0.814398 7.0149 0.660577C7.01762 0.506755 7.07993 0.359992 7.18872 0.251206C7.2975 0.142421 7.44427 0.0801075 7.59809 0.0773935C7.75191 0.0746795 7.90078 0.131777 8.01333 0.236657L13.3571 5.58041C13.4683 5.69174 13.5307 5.84265 13.5307 5.99999C13.5307 6.15733 13.4683 6.30824 13.3571 6.41957L8.01333 11.7633C7.95898 11.8217 7.89343 11.8684 7.82059 11.9009C7.74776 11.9334 7.66914 11.9508 7.58941 11.9522C7.50969 11.9536 7.4305 11.9389 7.35657 11.9091C7.28264 11.8792 7.21548 11.8348 7.1591 11.7784C7.10271 11.722 7.05827 11.6549 7.0284 11.5809C6.99854 11.507 6.98387 11.4278 6.98528 11.3481C6.98669 11.2684 7.00414 11.1897 7.03659 11.1169C7.06904 11.0441 7.11583 10.9785 7.17417 10.9242L11.5046 6.59374H1.0625C0.905028 6.59374 0.754005 6.53118 0.642655 6.41983C0.531306 6.30848 0.46875 6.15746 0.46875 5.99999Z" fill="white"/>
</svg>
