<svg width="39" height="10" viewBox="0 0 39 10" fill="none" xmlns="http://www.w3.org/2000/svg">
<path fill-rule="evenodd" clip-rule="evenodd" d="M5.12721 0.333344L0.885727 9.99567H5.96337L6.59285 8.45509H8.03171L8.66119 9.99567H14.2502V8.81985L14.7483 9.99567H17.6394L18.1374 8.795V9.99567H29.7611L31.1745 8.4951L32.498 9.99567L38.4682 10.0081L34.2133 5.19148L38.4682 0.333344H32.5906L31.2147 1.80618L29.9329 0.333344H17.2878L16.202 2.82727L15.0907 0.333344H10.0236V1.46915L9.45996 0.333344H5.12721ZM6.10971 1.70541H8.58479L11.3982 8.25748V1.70541H14.1095L16.2825 6.40322L18.2852 1.70541H20.983V8.63876H19.3414L19.328 3.20583L16.9348 8.63876H15.4664L13.0597 3.20583V8.63876H9.6827L9.04247 7.0844H5.58357L4.94467 8.6374H3.13528L6.10971 1.70541ZM29.1598 1.70541H22.4849V8.63467H29.0564L31.1745 6.3382L33.2161 8.63467H35.3502L32.2483 5.19012L35.3502 1.70541H33.3086L31.2013 3.97551L29.1598 1.70541ZM7.31375 2.87849L6.17418 5.64747H8.45199L7.31375 2.87849ZM24.1332 4.40663V3.14095V3.13974H28.2981L30.1155 5.16389L28.2176 7.1991H24.1332V5.81734H27.7746V4.40663H24.1332Z" fill="white"/>
</svg>
