<svg width="19" height="15" viewBox="0 0 19 15" fill="none" xmlns="http://www.w3.org/2000/svg">
<path d="M6.07627 12.422C6.07627 12.7585 5.94256 13.0813 5.70457 13.3193C5.46657 13.5573 5.14378 13.691 4.8072 13.691C4.47063 13.691 4.14784 13.5573 3.90984 13.3193C3.67185 13.0813 3.53814 12.7585 3.53814 12.422M6.07627 12.422C6.07627 12.0854 5.94256 11.7626 5.70457 11.5246C5.46657 11.2866 5.14378 11.1529 4.8072 11.1529C4.47063 11.1529 4.14784 11.2866 3.90984 11.5246C3.67185 11.7626 3.53814 12.0854 3.53814 12.422M6.07627 12.422H11.1525M3.53814 12.422H1.95181C1.69938 12.422 1.45729 12.3217 1.27879 12.1432C1.10029 11.9647 1.00002 11.7226 1.00002 11.4702V8.61478M11.1525 12.422H13.0561M11.1525 12.422V8.61478M1.00002 8.61478V2.15525C0.998671 1.92358 1.08332 1.69965 1.23757 1.52679C1.39183 1.35394 1.60473 1.24445 1.83506 1.21953C4.65495 0.926823 7.49758 0.926823 10.3175 1.21953C10.7955 1.2686 11.1525 1.6747 11.1525 2.15525V2.96576M1.00002 8.61478H11.1525M15.5942 12.422C15.5942 12.7585 15.4605 13.0813 15.2225 13.3193C14.9845 13.5573 14.6617 13.691 14.3252 13.691C13.9886 13.691 13.6658 13.5573 13.4278 13.3193C13.1898 13.0813 13.0561 12.7585 13.0561 12.422M15.5942 12.422C15.5942 12.0854 15.4605 11.7626 15.2225 11.5246C14.9845 11.2866 14.6617 11.1529 14.3252 11.1529C13.9886 11.1529 13.6658 11.2866 13.4278 11.5246C13.1898 11.7626 13.0561 12.0854 13.0561 12.422M15.5942 12.422H16.546C17.0714 12.422 17.5012 11.9956 17.4682 11.471C17.2982 8.67709 16.3573 5.98492 14.7499 3.69336C14.5968 3.4787 14.3969 3.30165 14.1653 3.1756C13.9337 3.04955 13.6765 2.9778 13.4131 2.96576H11.1525M11.1525 2.96576V8.61478" stroke="#2C2929" stroke-width="1.5" stroke-linecap="round" stroke-linejoin="round"/>
</svg>
